#!OML:ASF X:\für Bonn\!DataBase\2005_08_11_Bastian_Final\c3d\Bastian.ASF
:FULLY-SPECIFIED
:DEGREES
192
root 0.224395 17.2223 -16.7313 168.74 -3.62261 -177.212
lowerback 21.6758 -0.23315 -1.09393
upperback 9.49207 -2.52068 -0.675385
thorax -1.77107 -2.10016 0.494461
lowerneck -14.2135 -5.22789 -2.48747
upperneck -8.86631 -4.78357 11.8919
head -0.000167672 -1.53604 4.16248
rclavicle 3.93594e-014 -1.59028e-014
rhumerus -44.6526 26.5045 -102.317
rradius 105.342
rwrist 12.716
rhand -20.9234 14.8241
rfingers 7.12502
rthumb 5.44835 -15.0858
lclavicle 3.93594e-014 -1.59028e-014
lhumerus -28.7719 -39.3955 100.28
lradius 110.163
lwrist 42.0813
lhand -5.68576 -13.3323
lfingers 7.12502
lthumb 20.1344 15.6443
rfemur -19.9163 -0.143041 24.0741
rtibia 73.1092
rfoot -188.288 -192.125
rtoes -4.27937
lfemur -6.51018 1.43344 -13.8175
ltibia 47.1335
lfoot -10.608 -5.83415
ltoes -16.012
193
root 0.290728 17.3565 -16.5893 169.238 -4.33383 -177.108
lowerback 21.2788 -0.396181 -0.840469
upperback 9.29616 -2.5851 -0.674898
thorax -1.79217 -2.08453 0.356233
lowerneck -14.0778 -5.33086 -2.68622
upperneck -8.68164 -4.94886 11.9257
head 0.0596616 -1.62581 4.20336
rclavicle 3.97569e-015 -1.66979e-014
rhumerus -44.7155 26.151 -102.889
rradius 104.723
rwrist 12.3423
rhand -21.2548 15.0083
rfingers 7.12502
rthumb 5.1283 -14.9097
lclavicle 3.97569e-015 -1.66979e-014
lhumerus -29.264 -39.0865 100.529
lradius 109.408
lwrist 42.0922
lhand -5.79244 -13.6972
lfingers 7.12502
lthumb 20.0319 15.2902
rfemur -18.4315 0.434324 24.0864
rtibia 72.4431
rfoot -187.223 -191.628
rtoes -4.92341
lfemur -7.48155 0.177193 -13.8842
ltibia 46.1609
lfoot -8.59746 -4.79923
ltoes -17.9794
194
root 0.356985 17.4884 -16.4482 169.73 -5.0555 -177.05
lowerback 20.9128 -0.549581 -0.625569
upperback 9.0892 -2.64956 -0.689895
thorax -1.83953 -2.0708 0.224738
lowerneck -13.9667 -5.41692 -2.96458
upperneck -8.40615 -5.08967 12.093
head 0.16036 -1.69771 4.30883
rclavicle -6.55989e-015 1.82882e-014
rhumerus -44.7177 25.7903 -103.427
rradius 104.039
rwrist 12.0605
rhand -21.5049 15.1639
rfingers 7.12502
rthumb 4.88681 -14.7597
lclavicle -6.55989e-015 1.82882e-014
lhumerus -29.6382 -38.8212 100.707
lradius 108.686
lwrist 42.3
lhand -5.89119 -14.0212
lfingers 7.12502
lthumb 19.937 14.9761
rfemur -16.9201 1.05158 24.11
rtibia 71.5846
rfoot -186.066 -190.834
rtoes -5.49917
lfemur -8.5066 -1.10382 -13.9609
ltibia 45.235
lfoot -6.58186 -3.757
ltoes -19.9493
195
root 0.42452 17.6151 -16.3086 170.215 -5.78484 -177.025
lowerback 20.5288 -0.691675 -0.450974
upperback 8.89322 -2.71305 -0.702414
thorax -1.8638 -2.06039 0.116986
lowerneck -14.0262 -5.49468 -3.31778
upperneck -7.98325 -5.20136 12.658
head 0.361258 -1.74344 4.14675
rclavicle -1.51076e-014 -3.33958e-014
rhumerus -44.6228 25.4616 -103.88
rradius 103.384
rwrist 11.781
rhand -21.567 15.1642
rfingers 7.12502
rthumb 4.82685 -14.7609
lclavicle -1.51076e-014 -3.33958e-014
lhumerus -29.8778 -38.5731 100.813
lradius 108.063
lwrist 42.8217
lhand -5.9463 -14.1629
lfingers 7.12502
lthumb 19.884 14.8399
rfemur -15.4158 1.67612 24.169
rtibia 70.5652
rfoot -184.727 -189.794
rtoes -6.35706
lfemur -9.52733 -2.35929 -14.0296
ltibia 44.3736
lfoot -4.66816 -2.70861
ltoes -21.7218
196
root 0.491855 17.7357 -16.1692 170.708 -6.52193 -177.046
lowerback 20.1325 -0.831666 -0.323817
upperback 8.70336 -2.78778 -0.713239
thorax -1.87276 -2.05883 0.0391282
lowerneck -14.1174 -3.79283 -4.14968
upperneck -7.80408 -5.69236 12.76
head 0.475828 -3.25041 4.27619
rclavicle -1.33186e-014 -3.33958e-014
rhumerus -44.4555 25.2363 -104.264
rradius 102.824
rwrist 11.5587
rhand -21.5934 14.9479
rfingers 7.12502
rthumb 4.80141 -14.9777
lclavicle -1.33186e-014 -3.33958e-014
lhumerus -30.1361 -38.3131 100.968
lradius 107.549
lwrist 43.3552
lhand -6.01826 -14.1814
lfingers 7.12502
lthumb 19.8148 14.8286
rfemur -13.9675 2.31099 24.2369
rtibia 69.41
rfoot -183.114 -188.572
rtoes -7.29091
lfemur -10.5115 -3.5468 -14.0926
ltibia 43.5819
lfoot -2.89077 -1.7415
ltoes -22.6259
197
root 0.559646 17.8499 -16.0303 171.179 -7.26947 -177.088
lowerback 19.7507 -0.975555 -0.198938
upperback 8.51475 -2.87418 -0.753175
thorax -1.88849 -2.06443 -0.0656235
lowerneck -14.2222 -3.92502 -4.37623
upperneck -7.23792 -5.81267 12.9414
head 0.685225 -3.25099 4.34895
rclavicle 6.10269e-014 4.77083e-015
rhumerus -44.2744 25.0066 -104.642
rradius 102.337
rwrist 11.4294
rhand -21.5164 14.6546
rfingers 7.12502
rthumb 4.87571 -15.2693
lclavicle 6.10269e-014 4.77083e-015
lhumerus -30.4989 -38.0521 101.152
lradius 107.175
lwrist 43.9087
lhand -6.02862 -14.0256
lfingers 7.12502
lthumb 19.8048 14.9854
rfemur -12.5574 2.92017 24.3325
rtibia 68.1269
rfoot -181.239 -187.256
rtoes -7.87955
lfemur -11.4497 -4.63003 -14.1353
ltibia 42.8683
lfoot -1.31585 -0.85085
ltoes -22.8799
198
root 0.62753 17.9532 -15.8919 171.679 -7.99225 -177.13
lowerback 19.3197 -1.09871 -0.0800893
upperback 8.33535 -2.93711 -0.774415
thorax -1.86725 -2.06035 -0.15501
lowerneck -14.2948 -4.06204 -4.46302
upperneck -6.77529 -5.95702 12.9083
head 0.847033 -3.27567 4.33441
rclavicle 1.17283e-014 -4.21423e-014
rhumerus -44.0798 24.8559 -104.934
rradius 101.882
rwrist 11.3303
rhand -21.4971 14.3134
rfingers 7.12502
rthumb 4.89435 -15.6101
lclavicle 1.17283e-014 -4.21423e-014
lhumerus -30.8046 -37.8409 101.335
lradius 106.848
lwrist 44.4873
lhand -6.09702 -13.7333
lfingers 7.12502
lthumb 19.7391 15.2844
rfemur -11.2252 3.61591 24.5153
rtibia 66.7242
rfoot -179.187 -185.89
rtoes -8.04954
lfemur -12.4398 -5.50961 -14.1288
ltibia 42.2606
lfoot -0.0443688 -0.140919
ltoes -23.3385
199
root 0.696877 18.0428 -15.7523 172.135 -8.70498 -177.274
lowerback 18.9445 -1.19885 -0.0746224
upperback 8.18177 -3.00384 -0.829474
thorax -1.84333 -2.06526 -0.214103
lowerneck -14.3189 -4.16916 -4.44973
upperneck -6.4097 -6.07884 12.8174
head 0.965068 -3.30157 4.28984
rclavicle 2.127e-014 1.98785e-014
rhumerus -43.9885 24.7885 -105.244
rradius 101.539
rwrist 11.1901
rhand -21.5866 14.0032
rfingers 7.12502
rthumb 4.80792 -15.9222
lclavicle 2.127e-014 1.98785e-014
lhumerus -31.0524 -37.6662 101.455
lradius 106.558
lwrist 45.1491
lhand -6.1884 -13.3997
lfingers 7.12502
lthumb 19.6512 15.627
rfemur -9.86654 4.43009 24.6937
rtibia 65.2039
rfoot -177.038 -184.438
rtoes -8.8086
lfemur -13.3536 -6.06209 -14.1945
ltibia 41.7792
lfoot 0.945732 0.362435
ltoes -24.1859
